<svg xmlns="http://www.w3.org/2000/svg" xmlns:xlink="http://www.w3.org/1999/xlink" zoomAndPan="magnify" preserveAspectRatio="xMidYMid meet" version="1.0" viewBox="38.42 39.3 362.52 71.7"><defs><g/><clipPath id="4e8688ea8e"><path d="M 38.417969 47 L 112.121094 47 L 112.121094 111 L 38.417969 111 Z M 38.417969 47 " clip-rule="nonzero"/></clipPath></defs><g fill="#fffbfa" fill-opacity="1"><g transform="translate(114.046846, 99.390155)"><g><path d="M 5.578125 0 L 5.578125 -46.109375 L 11.171875 -46.109375 L 11.171875 -4.953125 L 32.59375 -4.953125 L 32.59375 0 Z M 5.578125 0 "/></g></g></g><g fill="#fffbfa" fill-opacity="1"><g transform="translate(149.706925, 99.390155)"><g><path d="M 15.03125 0.8125 C 12.84375 0.8125 10.851562 0.394531 9.0625 -0.4375 C 7.28125 -1.269531 5.863281 -2.476562 4.8125 -4.0625 C 3.757812 -5.644531 3.234375 -7.5625 3.234375 -9.8125 C 3.234375 -11.789062 3.625 -13.398438 4.40625 -14.640625 C 5.1875 -15.878906 6.226562 -16.847656 7.53125 -17.546875 C 8.84375 -18.253906 10.289062 -18.785156 11.875 -19.140625 C 13.457031 -19.492188 15.050781 -19.773438 16.65625 -19.984375 C 18.757812 -20.253906 20.46875 -20.460938 21.78125 -20.609375 C 23.09375 -20.753906 24.050781 -21 24.65625 -21.34375 C 25.269531 -21.6875 25.578125 -22.285156 25.578125 -23.140625 L 25.578125 -23.328125 C 25.578125 -25.546875 24.972656 -27.269531 23.765625 -28.5 C 22.554688 -29.726562 20.726562 -30.34375 18.28125 -30.34375 C 15.738281 -30.34375 13.75 -29.785156 12.3125 -28.671875 C 10.875 -27.566406 9.863281 -26.382812 9.28125 -25.125 L 4.234375 -26.921875 C 5.128906 -29.023438 6.332031 -30.664062 7.84375 -31.84375 C 9.351562 -33.019531 11.003906 -33.84375 12.796875 -34.3125 C 14.585938 -34.789062 16.351562 -35.03125 18.09375 -35.03125 C 19.207031 -35.03125 20.488281 -34.894531 21.9375 -34.625 C 23.382812 -34.363281 24.785156 -33.828125 26.140625 -33.015625 C 27.503906 -32.210938 28.632812 -30.992188 29.53125 -29.359375 C 30.4375 -27.722656 30.890625 -25.53125 30.890625 -22.78125 L 30.890625 0 L 25.578125 0 L 25.578125 -4.6875 L 25.296875 -4.6875 C 24.941406 -3.9375 24.34375 -3.128906 23.5 -2.265625 C 22.65625 -1.410156 21.535156 -0.679688 20.140625 -0.078125 C 18.742188 0.515625 17.039062 0.8125 15.03125 0.8125 Z M 15.84375 -3.96875 C 17.945312 -3.96875 19.722656 -4.378906 21.171875 -5.203125 C 22.617188 -6.023438 23.710938 -7.085938 24.453125 -8.390625 C 25.203125 -9.703125 25.578125 -11.078125 25.578125 -12.515625 L 25.578125 -17.375 C 25.347656 -17.101562 24.851562 -16.859375 24.09375 -16.640625 C 23.34375 -16.421875 22.472656 -16.234375 21.484375 -16.078125 C 20.503906 -15.921875 19.550781 -15.785156 18.625 -15.671875 C 17.707031 -15.566406 16.960938 -15.472656 16.390625 -15.390625 C 15.003906 -15.210938 13.710938 -14.925781 12.515625 -14.53125 C 11.328125 -14.132812 10.367188 -13.539062 9.640625 -12.75 C 8.910156 -11.96875 8.546875 -10.898438 8.546875 -9.546875 C 8.546875 -7.703125 9.234375 -6.3125 10.609375 -5.375 C 11.984375 -4.4375 13.726562 -3.96875 15.84375 -3.96875 Z M 15.84375 -3.96875 "/></g></g></g><g fill="#fffbfa" fill-opacity="1"><g transform="translate(185.457049, 99.390155)"><g><path d="M 5.578125 0 L 5.578125 -46.109375 L 10.890625 -46.109375 L 10.890625 -29.078125 L 11.34375 -29.078125 C 11.738281 -29.679688 12.285156 -30.453125 12.984375 -31.390625 C 13.679688 -32.328125 14.6875 -33.164062 16 -33.90625 C 17.3125 -34.65625 19.09375 -35.03125 21.34375 -35.03125 C 24.25 -35.03125 26.8125 -34.300781 29.03125 -32.84375 C 31.257812 -31.382812 32.992188 -29.316406 34.234375 -26.640625 C 35.484375 -23.972656 36.109375 -20.828125 36.109375 -17.203125 C 36.109375 -13.535156 35.484375 -10.363281 34.234375 -7.6875 C 32.992188 -5.007812 31.269531 -2.9375 29.0625 -1.46875 C 26.851562 -0.0078125 24.3125 0.71875 21.4375 0.71875 C 19.207031 0.71875 17.425781 0.347656 16.09375 -0.390625 C 14.757812 -1.140625 13.734375 -1.988281 13.015625 -2.9375 C 12.296875 -3.882812 11.738281 -4.675781 11.34375 -5.3125 L 10.71875 -5.3125 L 10.71875 0 Z M 10.8125 -17.28125 C 10.8125 -13.363281 11.660156 -10.175781 13.359375 -7.71875 C 15.066406 -5.269531 17.515625 -4.046875 20.703125 -4.046875 C 22.929688 -4.046875 24.789062 -4.632812 26.28125 -5.8125 C 27.769531 -7 28.894531 -8.59375 29.65625 -10.59375 C 30.414062 -12.59375 30.796875 -14.820312 30.796875 -17.28125 C 30.796875 -19.71875 30.421875 -21.914062 29.671875 -23.875 C 28.929688 -25.832031 27.816406 -27.382812 26.328125 -28.53125 C 24.835938 -29.675781 22.960938 -30.25 20.703125 -30.25 C 17.460938 -30.25 15.003906 -29.054688 13.328125 -26.671875 C 11.648438 -24.285156 10.8125 -21.15625 10.8125 -17.28125 Z M 10.8125 -17.28125 "/></g></g></g><g fill="#fffbfa" fill-opacity="1"><g transform="translate(224.8092, 99.390155)"><g><path d="M 30.796875 -34.578125 C 30.523438 -36.859375 29.425781 -38.628906 27.5 -39.890625 C 25.582031 -41.148438 23.226562 -41.78125 20.4375 -41.78125 C 17.375 -41.78125 14.910156 -41.054688 13.046875 -39.609375 C 11.191406 -38.160156 10.265625 -36.332031 10.265625 -34.125 C 10.265625 -32.476562 10.769531 -31.144531 11.78125 -30.125 C 12.789062 -29.113281 13.988281 -28.328125 15.375 -27.765625 C 16.769531 -27.203125 18.035156 -26.769531 19.171875 -26.46875 L 23.859375 -25.21875 C 25.054688 -24.894531 26.394531 -24.457031 27.875 -23.90625 C 29.351562 -23.351562 30.769531 -22.597656 32.125 -21.640625 C 33.488281 -20.691406 34.613281 -19.472656 35.5 -17.984375 C 36.382812 -16.492188 36.828125 -14.671875 36.828125 -12.515625 C 36.828125 -10.023438 36.175781 -7.773438 34.875 -5.765625 C 33.582031 -3.753906 31.691406 -2.15625 29.203125 -0.96875 C 26.722656 0.21875 23.710938 0.8125 20.171875 0.8125 C 15.210938 0.8125 11.273438 -0.359375 8.359375 -2.703125 C 5.453125 -5.046875 3.867188 -8.109375 3.609375 -11.890625 L 9.359375 -11.890625 C 9.515625 -10.148438 10.101562 -8.710938 11.125 -7.578125 C 12.15625 -6.441406 13.460938 -5.597656 15.046875 -5.046875 C 16.628906 -4.503906 18.335938 -4.234375 20.171875 -4.234375 C 22.296875 -4.234375 24.207031 -4.582031 25.90625 -5.28125 C 27.601562 -5.976562 28.945312 -6.953125 29.9375 -8.203125 C 30.925781 -9.453125 31.421875 -10.921875 31.421875 -12.609375 C 31.421875 -14.140625 30.992188 -15.382812 30.140625 -16.34375 C 29.285156 -17.300781 28.160156 -18.078125 26.765625 -18.671875 C 25.367188 -19.273438 23.859375 -19.804688 22.234375 -20.265625 L 16.5625 -21.875 C 12.96875 -22.914062 10.117188 -24.394531 8.015625 -26.3125 C 5.910156 -28.238281 4.859375 -30.753906 4.859375 -33.859375 C 4.859375 -36.441406 5.5625 -38.695312 6.96875 -40.625 C 8.375 -42.550781 10.265625 -44.050781 12.640625 -45.125 C 15.015625 -46.195312 17.675781 -46.734375 20.625 -46.734375 C 23.59375 -46.734375 26.234375 -46.203125 28.546875 -45.140625 C 30.859375 -44.085938 32.691406 -42.644531 34.046875 -40.8125 C 35.398438 -38.976562 36.117188 -36.898438 36.203125 -34.578125 Z M 30.796875 -34.578125 "/></g></g></g><g fill="#fffbfa" fill-opacity="1"><g transform="translate(265.241949, 99.390155)"><g><path d="M 19.90625 -34.578125 L 19.90625 -30.078125 L 12.515625 -30.078125 L 12.515625 -9.90625 C 12.515625 -8.40625 12.734375 -7.28125 13.171875 -6.53125 C 13.617188 -5.789062 14.191406 -5.296875 14.890625 -5.046875 C 15.585938 -4.804688 16.328125 -4.6875 17.109375 -4.6875 C 17.691406 -4.6875 18.171875 -4.71875 18.546875 -4.78125 C 18.921875 -4.851562 19.222656 -4.910156 19.453125 -4.953125 L 20.53125 -0.1875 C 20.164062 -0.0507812 19.660156 0.0859375 19.015625 0.234375 C 18.367188 0.378906 17.550781 0.453125 16.5625 0.453125 C 15.0625 0.453125 13.59375 0.128906 12.15625 -0.515625 C 10.726562 -1.160156 9.546875 -2.144531 8.609375 -3.46875 C 7.671875 -4.789062 7.203125 -6.457031 7.203125 -8.46875 L 7.203125 -30.078125 L 1.984375 -30.078125 L 1.984375 -34.578125 L 7.203125 -34.578125 L 7.203125 -42.859375 L 12.515625 -42.859375 L 12.515625 -34.578125 Z M 19.90625 -34.578125 "/></g></g></g><g fill="#fffbfa" fill-opacity="1"><g transform="translate(288.294924, 99.390155)"><g><path d="M 18.90625 0.71875 C 15.789062 0.71875 13.054688 -0.0195312 10.703125 -1.5 C 8.359375 -2.988281 6.523438 -5.066406 5.203125 -7.734375 C 3.890625 -10.410156 3.234375 -13.535156 3.234375 -17.109375 C 3.234375 -20.710938 3.890625 -23.851562 5.203125 -26.53125 C 6.523438 -29.21875 8.359375 -31.304688 10.703125 -32.796875 C 13.054688 -34.285156 15.789062 -35.03125 18.90625 -35.03125 C 22.03125 -35.03125 24.765625 -34.285156 27.109375 -32.796875 C 29.460938 -31.304688 31.296875 -29.21875 32.609375 -26.53125 C 33.921875 -23.851562 34.578125 -20.710938 34.578125 -17.109375 C 34.578125 -13.535156 33.921875 -10.410156 32.609375 -7.734375 C 31.296875 -5.066406 29.460938 -2.988281 27.109375 -1.5 C 24.765625 -0.0195312 22.03125 0.71875 18.90625 0.71875 Z M 18.90625 -4.046875 C 21.28125 -4.046875 23.234375 -4.65625 24.765625 -5.875 C 26.296875 -7.09375 27.425781 -8.691406 28.15625 -10.671875 C 28.894531 -12.648438 29.265625 -14.796875 29.265625 -17.109375 C 29.265625 -19.421875 28.894531 -21.570312 28.15625 -23.5625 C 27.425781 -25.5625 26.296875 -27.175781 24.765625 -28.40625 C 23.234375 -29.632812 21.28125 -30.25 18.90625 -30.25 C 16.539062 -30.25 14.59375 -29.632812 13.0625 -28.40625 C 11.53125 -27.175781 10.394531 -25.5625 9.65625 -23.5625 C 8.914062 -21.570312 8.546875 -19.421875 8.546875 -17.109375 C 8.546875 -14.796875 8.914062 -12.648438 9.65625 -10.671875 C 10.394531 -8.691406 11.53125 -7.09375 13.0625 -5.875 C 14.59375 -4.65625 16.539062 -4.046875 18.90625 -4.046875 Z M 18.90625 -4.046875 "/></g></g></g><g fill="#fffbfa" fill-opacity="1"><g transform="translate(326.116221, 99.390155)"><g><path d="M 18.90625 0.71875 C 15.664062 0.71875 12.875 -0.046875 10.53125 -1.578125 C 8.1875 -3.109375 6.382812 -5.21875 5.125 -7.90625 C 3.863281 -10.59375 3.234375 -13.660156 3.234375 -17.109375 C 3.234375 -20.617188 3.882812 -23.71875 5.1875 -26.40625 C 6.488281 -29.101562 8.304688 -31.210938 10.640625 -32.734375 C 12.972656 -34.265625 15.695312 -35.03125 18.8125 -35.03125 C 21.25 -35.03125 23.441406 -34.578125 25.390625 -33.671875 C 27.335938 -32.773438 28.9375 -31.515625 30.1875 -29.890625 C 31.4375 -28.273438 32.207031 -26.382812 32.5 -24.21875 L 27.1875 -24.21875 C 26.78125 -25.789062 25.882812 -27.1875 24.5 -28.40625 C 23.113281 -29.632812 21.25 -30.25 18.90625 -30.25 C 15.800781 -30.25 13.296875 -29.066406 11.390625 -26.703125 C 9.492188 -24.335938 8.546875 -21.195312 8.546875 -17.28125 C 8.546875 -13.28125 9.484375 -10.070312 11.359375 -7.65625 C 13.242188 -5.25 15.757812 -4.046875 18.90625 -4.046875 C 20.976562 -4.046875 22.753906 -4.578125 24.234375 -5.640625 C 25.710938 -6.710938 26.695312 -8.191406 27.1875 -10.078125 L 32.5 -10.078125 C 32.207031 -8.035156 31.46875 -6.203125 30.28125 -4.578125 C 29.101562 -2.953125 27.550781 -1.660156 25.625 -0.703125 C 23.695312 0.242188 21.457031 0.71875 18.90625 0.71875 Z M 18.90625 0.71875 "/></g></g></g><g fill="#fffbfa" fill-opacity="1"><g transform="translate(361.506133, 99.390155)"><g><path d="M 4.859375 0 L 4.859375 -46.109375 L 10.171875 -46.109375 L 10.171875 -19.171875 L 10.8125 -19.171875 L 25.9375 -34.578125 L 32.5 -34.578125 L 17.890625 -19.8125 L 33.59375 0 L 26.828125 0 L 13.890625 -16.390625 L 10.171875 -12.9375 L 10.171875 0 Z M 4.859375 0 "/></g></g></g><g clip-path="url(#4e8688ea8e)"><path fill="#fffbfa" d="M 108.503906 52.839844 L 80.113281 52.839844 L 80.113281 50.222656 L 80.191406 50.222656 C 80.828125 50.222656 81.347656 49.707031 81.347656 49.070312 C 81.347656 48.433594 80.828125 47.914062 80.191406 47.914062 L 70.34375 47.914062 C 69.707031 47.914062 69.191406 48.433594 69.191406 49.070312 C 69.191406 49.707031 69.707031 50.222656 70.34375 50.222656 L 70.421875 50.222656 L 70.421875 52.839844 L 42.03125 52.839844 C 40.039062 52.839844 38.417969 54.460938 38.417969 56.457031 L 38.417969 98.308594 C 38.417969 100.300781 40.039062 101.921875 42.03125 101.921875 L 64.265625 101.921875 L 64.265625 108.230469 L 59.265625 108.230469 C 58.628906 108.230469 58.113281 108.75 58.113281 109.386719 C 58.113281 110.023438 58.628906 110.539062 59.265625 110.539062 L 91.269531 110.539062 C 91.90625 110.539062 92.425781 110.023438 92.425781 109.386719 C 92.425781 108.75 91.90625 108.230469 91.269531 108.230469 L 86.269531 108.230469 L 86.269531 101.921875 L 108.503906 101.921875 C 110.496094 101.921875 112.121094 100.300781 112.121094 98.308594 L 112.121094 56.457031 C 112.121094 54.460938 110.496094 52.839844 108.503906 52.839844 Z M 80.113281 60.070312 L 104.886719 60.070312 L 104.886719 89.210938 C 103.519531 87.714844 101.820312 86.535156 99.894531 85.777344 C 99.847656 85.757812 99.808594 85.726562 99.808594 85.699219 L 99.808594 69.917969 L 99.886719 69.917969 C 100.523438 69.917969 101.039062 69.402344 101.039062 68.765625 C 101.039062 68.128906 100.523438 67.609375 99.886719 67.609375 L 90.039062 67.609375 C 89.402344 67.609375 88.886719 68.128906 88.886719 68.765625 C 88.886719 69.402344 89.402344 69.917969 90.039062 69.917969 L 90.117188 69.917969 L 90.117188 85.695312 C 90.117188 85.722656 90.078125 85.757812 90.027344 85.78125 C 89.984375 85.796875 89.9375 85.816406 89.894531 85.835938 C 89.386719 80.476562 85.992188 75.800781 80.949219 73.6875 C 80.441406 73.472656 80.113281 73 80.113281 72.476562 Z M 99.050781 87.925781 C 100.1875 88.375 101.226562 88.996094 102.144531 89.769531 L 89.742188 89.769531 C 89.824219 89.304688 89.878906 88.832031 89.917969 88.359375 C 90.230469 88.199219 90.550781 88.054688 90.875 87.925781 C 91.816406 87.554688 92.425781 86.679688 92.425781 85.695312 L 92.425781 69.917969 L 97.503906 69.917969 L 97.503906 85.699219 C 97.503906 86.679688 98.109375 87.554688 99.050781 87.925781 Z M 104.21875 92.074219 C 104.464844 92.441406 104.683594 92.820312 104.886719 93.214844 L 104.886719 94.691406 L 87.921875 94.691406 C 88.414062 93.859375 88.820312 92.984375 89.136719 92.074219 Z M 62.957031 62.6875 L 53.109375 62.6875 C 52.472656 62.6875 51.957031 63.203125 51.957031 63.839844 C 51.957031 64.476562 52.472656 64.996094 53.109375 64.996094 L 53.1875 64.996094 L 53.1875 86.316406 C 53.1875 86.628906 53.074219 86.929688 52.875 87.167969 L 46.425781 94.691406 L 45.648438 94.691406 L 45.648438 60.070312 L 70.421875 60.070312 L 70.421875 72.476562 C 70.421875 73 70.089844 73.476562 69.582031 73.691406 C 66.742188 74.882812 64.445312 76.863281 62.882812 79.304688 L 62.882812 64.996094 L 62.957031 64.996094 C 63.597656 64.996094 64.113281 64.476562 64.113281 63.839844 C 64.113281 63.203125 63.597656 62.6875 62.957031 62.6875 Z M 60.765625 89.613281 C 61.058594 91.40625 61.683594 93.125 62.617188 94.691406 L 49.464844 94.691406 L 53.816406 89.613281 Z M 55.355469 87.304688 C 55.445312 86.984375 55.496094 86.652344 55.496094 86.316406 L 55.496094 64.996094 L 60.574219 64.996094 L 60.574219 87.304688 Z M 63.144531 84.691406 L 87.390625 84.691406 C 87.5625 85.515625 87.65625 86.363281 87.65625 87.230469 C 87.65625 89.921875 86.769531 92.550781 85.15625 94.691406 L 65.398438 94.691406 C 64.035156 92.898438 63.191406 90.804688 62.953125 88.597656 C 62.8125 87.261719 62.882812 85.945312 63.144531 84.691406 Z M 70.472656 75.816406 C 71.84375 75.242188 72.730469 73.929688 72.730469 72.476562 L 72.730469 50.222656 L 77.808594 50.222656 L 77.808594 72.476562 C 77.808594 73.929688 78.691406 75.242188 80.054688 75.816406 C 83.097656 77.09375 85.433594 79.476562 86.667969 82.382812 L 63.863281 82.382812 C 65.089844 79.488281 67.40625 77.105469 70.472656 75.816406 Z M 83.960938 108.230469 L 66.574219 108.230469 L 66.574219 101.921875 L 83.960938 101.921875 Z M 109.8125 98.308594 C 109.8125 99.027344 109.226562 99.617188 108.503906 99.617188 L 42.03125 99.617188 C 41.3125 99.617188 40.722656 99.027344 40.722656 98.308594 L 40.722656 56.457031 C 40.722656 55.734375 41.3125 55.148438 42.03125 55.148438 L 70.421875 55.148438 L 70.421875 57.761719 L 44.492188 57.761719 C 43.855469 57.761719 43.339844 58.28125 43.339844 58.917969 L 43.339844 95.847656 C 43.339844 96.484375 43.855469 97 44.492188 97 L 106.042969 97 C 106.679688 97 107.195312 96.484375 107.195312 95.847656 L 107.195312 58.917969 C 107.195312 58.28125 106.679688 57.761719 106.042969 57.761719 L 80.113281 57.761719 L 80.113281 55.148438 L 108.503906 55.148438 C 109.226562 55.148438 109.8125 55.734375 109.8125 56.457031 Z M 109.8125 98.308594 " fill-opacity="1" fill-rule="nonzero"/></g><path fill="#fffbfa" d="M 69.125 87.304688 L 69.113281 87.304688 C 68.476562 87.304688 67.964844 87.824219 67.964844 88.460938 C 67.964844 89.097656 68.488281 89.613281 69.125 89.613281 C 69.761719 89.613281 70.28125 89.097656 70.28125 88.460938 C 70.28125 87.824219 69.761719 87.304688 69.125 87.304688 Z M 69.125 87.304688 " fill-opacity="1" fill-rule="nonzero"/><path fill="#fffbfa" d="M 82.652344 87.304688 L 82.640625 87.304688 C 82.003906 87.304688 81.492188 87.824219 81.492188 88.460938 C 81.492188 89.097656 82.015625 89.613281 82.652344 89.613281 C 83.292969 89.613281 83.808594 89.097656 83.808594 88.460938 C 83.808594 87.824219 83.289062 87.304688 82.652344 87.304688 Z M 82.652344 87.304688 " fill-opacity="1" fill-rule="nonzero"/><path fill="#fffbfa" d="M 75.28125 89.769531 L 75.269531 89.769531 C 74.628906 89.769531 74.121094 90.285156 74.121094 90.921875 C 74.121094 91.558594 74.644531 92.074219 75.28125 92.074219 C 75.917969 92.074219 76.433594 91.558594 76.433594 90.921875 C 76.433594 90.285156 75.917969 89.769531 75.28125 89.769531 Z M 75.28125 89.769531 " fill-opacity="1" fill-rule="nonzero"/><path fill="#fffbfa" d="M 76.511719 39.296875 L 76.5 39.296875 C 75.863281 39.296875 75.351562 39.816406 75.351562 40.453125 C 75.351562 41.089844 75.875 41.605469 76.511719 41.605469 C 77.148438 41.605469 77.664062 41.089844 77.664062 40.453125 C 77.664062 39.816406 77.148438 39.296875 76.511719 39.296875 Z M 76.511719 39.296875 " fill-opacity="1" fill-rule="nonzero"/><path fill="#fffbfa" d="M 72.816406 42.992188 L 72.804688 42.992188 C 72.167969 42.992188 71.65625 43.507812 71.65625 44.144531 C 71.65625 44.78125 72.179688 45.300781 72.816406 45.300781 C 73.457031 45.300781 73.972656 44.78125 73.972656 44.144531 C 73.972656 43.507812 73.457031 42.992188 72.816406 42.992188 Z M 72.816406 42.992188 " fill-opacity="1" fill-rule="nonzero"/><path stroke-linecap="butt" transform="matrix(1.209531, 0.000000000000000122, -0.000000000000000122, 1.208253, 60.413909, 108.29213)" fill="none" stroke-linejoin="miter" d="M 0.000126539 0.999683 L 280.710015 0.999683 " stroke="#fffbfa" stroke-width="2" stroke-opacity="1" stroke-miterlimit="4"/></svg>